# xmcd
#
# Track frame offsets: 
#        182
#        14022
#        27637
#        51072
#        69790
#        84782
#        100230
#        114537
#        135805
#        157380
#        179980
#        192102
#
# Disc length: 2991 seconds
#
# Revision: 5
# Processed by: cddbd v1.5.2PL0 Copyright (c) Steve Scherf et al.
# Submitted via: ExactAudioCopyFreeDBPlugin 1.0
#
DISCID=9f0bad0c
DTITLE=Robert Earl Keen - Gravitational Forces
DYEAR=2001
DGENRE=Country
TTITLE0=My Home Ain't in The Hall Of Fame
TTITLE1=Hello New Orleans
TTITLE2=Wild Wind
TTITLE3=Not A Drop Of Rain
TTITLE4=I Still Miss Someone
TTITLE5=Fallin' Out
TTITLE6=High Plains Jamboree
TTITLE7=Walkin' Cane
TTITLE8=Goin' Nowhere Blues
TTITLE9=Snowin' On Raton
TTITLE10=Gravitational Forces
TTITLE11=The Road Goes On Forever
EXTD=YEAR: 2001
EXTT0=
EXTT1=
EXTT2=
EXTT3=
EXTT4=
EXTT5=
EXTT6=
EXTT7=
EXTT8=
EXTT9=
EXTT10=
EXTT11=
PLAYORDER=
